<svg id="_26e08365-e7f3-4f87-b2fd-e29738693ebb" data-name="26e08365-e7f3-4f87-b2fd-e29738693ebb" xmlns="http://www.w3.org/2000/svg" xmlns:xlink="http://www.w3.org/1999/xlink" viewBox="0 0 999 797.24"><defs><style>.cls-1{fill:#2271ff;}.cls-1,.cls-12,.cls-3{opacity:0.1;}.cls-1,.cls-11,.cls-3{isolation:isolate;}.cls-2{fill:#5f5d7e;}.cls-4{fill:#474157;}.cls-5{fill:#ededf4;}.cls-6{fill:#e6e8ec;}.cls-7{fill:#694ac4;}.cls-8{fill:url(#linear-gradient);}.cls-9{fill:#fdc2cc;}.cls-10{opacity:0.29;}.cls-11{opacity:0.3;}.cls-13{fill:#ffd037;}.cls-14{fill:#65617d;}.cls-15{fill:#9d9cb5;}</style><linearGradient id="linear-gradient" x1="778.71" y1="-45.4" x2="778.71" y2="470.77" gradientTransform="matrix(1, 0, 0, -1, -100.5, 748.63)" gradientUnits="userSpaceOnUse"><stop offset="0" stop-color="gray" stop-opacity="0.25"/><stop offset="0.54" stop-color="gray" stop-opacity="0.12"/><stop offset="1" stop-color="gray" stop-opacity="0.1"/></linearGradient></defs><title>register</title><path class="cls-1" d="M321.21,31.27C352,3.84,400.32-1.73,444.3.43,582.46,7.3,707.17,74,815,149.43c39.05,27.31,77.5,56.74,102.85,94.35,51.6,76.57,36.3,182.63-35.46,245.7C858,510.94,828.43,527.39,798,542c-54,25.93-112.31,46.74-173.62,52.67-43.73,4.22-88,.79-131.46-5.11C371.5,573.08,252.31,536.63,152.4,474.35,108.58,447,67.27,413.05,49.21,368.83s-6.5-100.2,38.29-126.4c18.51-10.82,40.64-15.71,62.3-20.3,31.89-6.76,64.29-13.42,93.06-27.15,29.72-14.19,64.92-41.63,59-73C295.5,88.26,290.5,58.63,321.21,31.27Z" transform="translate(0 -0.01)"/><circle class="cls-1" cx="174.08" cy="129.39" r="31.5"/><circle class="cls-1" cx="108.09" cy="54.39" r="19.5"/><circle class="cls-1" cx="925.57" cy="114.39" r="12"/><ellipse class="cls-1" cx="689.92" cy="788.84" rx="84.24" ry="8.4"/><polygon class="cls-2" points="214 487.3 213.63 507.25 210.67 668.96 185.33 728.3 98 729.3 98 496.49 189.14 489.27 214 487.3"/><polygon class="cls-3" points="214 487.3 213.63 507.25 210.67 668.96 185.33 728.3 98 729.3 98 496.49 189.14 489.27 214 487.3"/><polygon class="cls-2" points="214 487.3 213.63 507.25 210.67 668.96 185.33 728.3 192 507.63 191.98 507.49 189.14 489.27 214 487.3"/><polygon class="cls-3" points="189.14 489.27 214 487.3 213.63 507.25 191.98 507.49 98 508.54 98 496.49 189.14 489.27"/><polygon class="cls-2" points="999 496.49 999 727.96 978.67 727.96 897.33 668.63 897.33 489.96 970 483.13 974.46 485.18 978.67 487.12 999 496.49"/><rect class="cls-3" x="978.67" y="485.18" width="20.33" height="242.78"/><polygon class="cls-3" points="999 485.18 999 498.49 978.67 498.72 897.33 499.62 897.33 489.96 970 483.13 974.46 485.18 978.67 487.12 978.67 485.18 999 485.18"/><polygon class="cls-2" points="999 477.63 999 496.49 0 507.63 0 483.63 94 464.63 912 458.63 999 477.63"/><polygon class="cls-3" points="999 477.63 999 496.49 0 507.63 0 483.63 999 477.63"/><rect class="cls-4" x="365.5" y="194.96" width="349.92" height="271.69" rx="22.82" ry="22.82"/><rect class="cls-5" x="393.66" y="219.47" width="294.12" height="221.63"/><circle class="cls-6" cx="382.18" cy="330.28" r="4.82"/><circle class="cls-6" cx="700.81" cy="330.8" r="7.95"/><path class="cls-7" d="M572.43,331.15l-37.61-22.86a5.14,5.14,0,0,0-7,2,5.05,5.05,0,0,0-.64,2.47v44.46a5.14,5.14,0,0,0,7.63,4.48l37.61-21.58a5.15,5.15,0,0,0,0-9ZM600.71,335a53,53,0,1,0-53,53h0A53,53,0,0,0,600.71,335ZM505,335a42.74,42.74,0,1,1,42.74,42.74h0A42.73,42.73,0,0,1,505,335v0Z" transform="translate(0 -0.01)"/><path class="cls-8" d="M803.88,509.14a12.49,12.49,0,0,0-1.13-3.52c.76-2.59,1.25-4.18,1.25-4.18a5.84,5.84,0,0,0-.12-1,15.34,15.34,0,0,0-15.55-12.88c-6,.11-17.38.51-30,1.93.72-5.05,1.58-11.09,2.48-17.31l1.65.18a7.91,7.91,0,0,1,1.18.06h.53a5.46,5.46,0,0,0,3.66-1.12,2.15,2.15,0,0,0,0-3.05,2.06,2.06,0,0,0-.71-.49,8.93,8.93,0,0,0,7.83-3.28,7,7,0,0,0,0-8.14c-2.11-3-6.58-5-6.82-8.53-.13-2,1.21-3.8,2.26-5.57a23.27,23.27,0,0,0-3.67-27.95,55.41,55.41,0,0,0-4.44-4c-2.2-8.08-4.5-15.3-5.18-15.53-.88-.29-2.39-2.19-3.83-3.82a18.4,18.4,0,0,0-.07-4.13c-1.06-7-8-12-11.82-18.18s-4.51-13.75-3.53-20.83,3.45-13.93,5.46-20.84c1.5-5.13,2.75-10.58,1.07-15.67-1.19-3.63-3.78-6.77-6.45-9.72-6.41-7.09-13.8-13.73-22.92-18a45.57,45.57,0,0,0-20.29-4.34h-.07l-1.1.06-.78.05-.78.08-.83.08h0c-.85.11-1.69.24-2.53.41a87.67,87.67,0,0,0-18.55-2.08h-.81a9.46,9.46,0,0,0-5.3,1.25c-2.22,1.55-2.5,4.33-3.17,6.75a18.72,18.72,0,0,1-7.2,10c-2.39,1.72-5.2,3-7.48,4.8s-4.06,4.5-3.45,7.16c.51,2.23,2.59,3.89,5,4.9-.29.36-.59.71-.87,1.08.47.19,1,.36,1.43.5,3,.89,6.23,1,9.27,1.81A19.22,19.22,0,0,1,660,317a35.13,35.13,0,0,0-4.11,16.52,35.59,35.59,0,0,0,18.62,31.22v1c.31,10.44-.48,23.14-5.82,25.29s-10.45,4.58-13.6,6.15l-1,.53c-.83-.38-1.66-.78-2.47-1.2,0,0-4.25-.5-3.51,2.74,0,0-12.85-2-19.9,3.49s-18.62,16.95-20.89,19.94-19.82,9.53-19.82,9.53,5.53-7.73,3.14-17.2c0,0-2.64-11.42-1.38-16s4.53-21.58,4.53-21.58.46-17.94-9.33-26.17-16.6-15-12.82-7a110.66,110.66,0,0,0,5.54,10.71s-23.41,5.56-15.1,14.24,10.57,8.69,10.57,8.69-2.77,21.43-3.28,25.42-5,34.39-5,34.39-.25,14.46,2.27,16.7c0,0,1.65,9.31,12.08,9,0,0,19.88-.5,25.42-2.74s24.66-14.21,26.68-13.46a1.16,1.16,0,0,1,.39.26,2.13,2.13,0,0,1,.3.3c-2,4.43-6.74,19.47-4.72,26.86,0,0-1.76,20.93,8.81,27.66,0,0,15.35,25.92,9.56,39.87-.46,1.13-.87,2.17-1.25,3.18-8.79-7.29-22.2-14-42.68-17.71-2.09-.38-4.17-.84-6.23-1.34-5.82-1.41-21.83-2.7-29.45,22.61A112,112,0,0,1,558.79,566c-3,6.07-6.33,14.77-6.4,23.4-.17,12.1,6.08,24.09,28.76,28.49.25,9,1.28,19.72,4.36,27.43,6.29,15.7,16.36,41.12,16.36,41.12S614,712.34,614.71,722.8c.49,6.85,1.21,15.83.71,22a9.77,9.77,0,0,1-.1,1.1,26.54,26.54,0,0,1-3.38,3.07c-1.76,1-7.55,7.23-7.55,8.72a26.45,26.45,0,0,0,.38,4.26c-2.74,2.39-4.24,5-4.24,7.6,0,13.52,38.37,24.48,85.7,24.48s85.69-11,85.69-24.48c0-12.34-32-22.54-73.58-24.22,8.67-3.46,16.37-7.09,19.56-10a4.7,4.7,0,0,0,1.51-2.06l-8-18.69s-.63.14-1.56.41l-.56-.84c-3.58-5.45-10.47-16.31-10.47-19.26,0-1.09-1.82-8.06-4.46-17.61V646.63c26.26,4,60.1-1.44,60.1-1.44l.15-.08h.66v-.36c4.55-2.52,27.31-15.85,34.06-33.53,2-5.16-.49-12.55-5.44-20.45,3.46-8.59,12-30.78,11.15-39.63,0-.47-.06-1-.06-1.52.08-.9.11-1.81.1-2.72,1-13,9-36.75,9-36.75S804,509.74,803.88,509.14Zm-170-57.76c1.82,3.2,3.77,7.29,4.54,8.95h0s-2.66-4.9-4.49-8.95Zm1.9,280.1-.19.07v-1a58.32,58.32,0,0,1,.19-7.82,9.18,9.18,0,0,0-.86-4.06,96.12,96.12,0,0,1-6.13-24.13c-1-8.72-1.83-18.23-1.31-20.65.78-3.71,1.42-31.81.45-45.66l15.48,3.48,18,36.7s11.58,17.92,15.17,32.06v14.16a34.69,34.69,0,0,1-5.41,11.74c-2.39,3.27-4.72,6.58-6.88,10-.66,1.06-1.39,2.15-2.12,3.17-.24,0-12.07.69-14.08,2.91-1.24,1.37-3.4,3.53-3.76,5.7l-.51.08c-2.32-6.91-8-16.75-8-16.75Z" transform="translate(0 -0.01)"/><path class="cls-3" d="M711.93,718.63l-4,13-17,14.75-25,7.18s-11.75-6.43-7.75-7.68c1.11-.35,2.43-1.62,3.77-3.28-1.4,5.1,9.73-1.47,9.73-1.47s28.75-20.5,31.75-22.75a22.92,22.92,0,0,1,6.4-2.93C711.08,717.4,711.93,718.63,711.93,718.63Z" transform="translate(0 -0.01)"/><path class="cls-9" d="M711.93,718.63l-4,13-17,14.75-25,7.18s-11.75-6.43-7.75-7.68c1.11-.35,2.43-1.62,3.77-3.28a49.83,49.83,0,0,0,3.34-4.82c2.14-3.44,4.46-6.76,6.83-10a35.93,35.93,0,0,0,6.31-16.61c1.75-13.75-16-41.5-16-41.5l-32.25-66.25,45,5.5s24.25,83.25,24.25,87.25c0,3,6.84,13.85,10.4,19.32C711.08,717.4,711.93,718.63,711.93,718.63Z" transform="translate(0 -0.01)"/><ellipse class="cls-2" cx="686.97" cy="771.04" rx="85.12" ry="24.55"/><path class="cls-7" d="M719.93,734.63a4.76,4.76,0,0,1-1.5,2.07c-6.18,5.67-29.29,14.1-43.57,18.68a100.58,100.58,0,0,1-11.43,3.25c-3.5.25-10.75-2-15.75-5.07s-.5-7.43,1.52-9.68,14-2.92,14-2.92c-5.75,9.57,8.49,1.17,8.49,1.17s28.75-20.5,31.75-22.75,8.5-3.5,8.5-3.5Z" transform="translate(0 -0.01)"/><path class="cls-10" d="M719.93,734.63a4.76,4.76,0,0,1-1.5,2.07c-6.18,5.67-29.29,14.1-43.57,18.68a100.58,100.58,0,0,1-11.43,3.25c-3.5.25-10.75-2-15.75-5.07s-.5-7.43,1.52-9.68,14-2.92,14-2.92c-5.75,9.57,8.49,1.17,8.49,1.17s28.75-20.5,31.75-22.75,8.5-3.5,8.5-3.5Z" transform="translate(0 -0.01)"/><path class="cls-3" d="M718.43,736.72c-6.18,5.67-29.29,14.1-43.57,18.68C687.8,744.44,709.5,738.71,718.43,736.72Z" transform="translate(0 -0.01)"/><ellipse class="cls-3" cx="686.97" cy="763.13" rx="17.03" ry="4.91"/><rect class="cls-2" x="677.5" y="633.63" width="17.5" height="129.5"/><path class="cls-3" d="M695,640.06v15c-3.5-1.08-11.49-5.63-17.5-9.21V633.63h3.65Z" transform="translate(0 -0.01)"/><path class="cls-4" d="M653.77,577.26s57.78-14.87,72.16-26,70.85,41.24,63.39,61-34.62,34.07-34.62,34.07-75.11,12.22-87.9-13.27S653.77,577.26,653.77,577.26Z" transform="translate(0 -0.01)"/><path class="cls-3" d="M653.77,577.26s57.78-14.87,72.16-26,70.85,41.24,63.39,61-34.62,34.07-34.62,34.07-75.11,12.22-87.9-13.27S653.77,577.26,653.77,577.26Z" transform="translate(0 -0.01)"/><path class="cls-4" d="M648.77,571.26s57.78-14.87,72.16-26,70.85,41.24,63.39,61-34.62,34.07-34.62,34.07-75.11,12.22-87.9-13.27S648.77,571.26,648.77,571.26Z" transform="translate(0 -0.01)"/><path class="cls-9" d="M595.18,434.9l-6.25-2.27s5.5-7.75,3.13-17.25c0,0-2.63-11.46-1.38-16.1s4.5-21.65,4.5-21.65.46-18-9.27-26.25-16.48-15-12.73-7a111,111,0,0,0,5.5,10.75s-23.25,5.57-15,14.29,10.5,8.71,10.5,8.71-2.75,21.5-3.25,25.5-5,34.5-5,34.5-.25,14.5,2.25,16.75a11.31,11.31,0,0,0,12,9C582,463.85,603.18,440.4,595.18,434.9Z" transform="translate(0 -0.01)"/><path class="cls-9" d="M746.18,388.9v14l-14.5,4.73L707,425.81l-6.55,4.82-29.25-11.75-18.5-19.5s.9-.49,2.46-1.3l1-.53c3.13-1.57,8.06-4,13.51-6.17s6.09-14.89,5.78-25.37v-1c-.25-7.35-1-13.36-1-13.36s3.05-.58,7.49-1.24c12.31-1.83,35.28-4.3,33.26,3.24a17.36,17.36,0,0,0,0,7.79c.06.28.12.57.19.85,2.08,9.09,8.52,18.61,8.52,18.61l20,7.2.56.2Z" transform="translate(0 -0.01)"/><path class="cls-9" d="M746.18,393.15V388.9a14,14,0,0,1,4.75,0c1.75.5,5.07,5.75,6.57,6.25s10.68,34.75,9.68,37.75-10.45,70.73-10.45,70.73l-19.05,21-3.75-57.75,12.25-34.25Z" transform="translate(0 -0.01)"/><path class="cls-9" d="M647.43,550.4s-17.41,3.75-15.2,9.25,11.95,5.75,11.95,5.75Z" transform="translate(0 -0.01)"/><path class="cls-9" d="M671.68,439.35,658.43,467.9l-15.75,11.5-2.75-17.77s-5.32-11.75-7.61-13.74a1.16,1.16,0,0,0-.39-.26c-2-.75-21,11.25-26.5,13.5s-25.25,2.75-25.25,2.75l8.75-31.25s17.5-6.5,19.75-9.5,13.75-14.5,20.75-20,19.77-3.5,19.77-3.5l.2.08,3.28,1.42,9.5,23.25Z" transform="translate(0 -0.01)"/><path class="cls-9" d="M636.93,724.15a58.66,58.66,0,0,0-.19,7.84c.07,2.79.19,5.16.19,5.16l-5.75,12s-19.75,6.5-16.5,3.75c1.13-.95,1.71-3.42,2-6.69.49-6.18-.22-15.19-.71-22.06-.75-10.5-12.75-36.5-12.75-36.5s-10-25.5-16.25-41.25-4-44.25-4-44.25,1-21.5,5.5-28,22-8.75,22-8.75l8.21,27.23s6.75,25.5,9.25,29.25,1.75,48.5.75,53.25c-.51,2.43.35,12,1.31,20.72a97.2,97.2,0,0,0,6.08,24.2A9.21,9.21,0,0,1,636.93,724.15Z" transform="translate(0 -0.01)"/><path class="cls-3" d="M636.93,737.15l-5.75,12s-19.75,6.5-16.5,3.75c1.13-.95,1.71-3.42,2-6.69.71-.71,1.47-1.49,2.25-2.29A50.49,50.49,0,0,1,636.78,732h0C636.81,734.78,636.93,737.15,636.93,737.15Z" transform="translate(0 -0.01)"/><path class="cls-7" d="M646,755a.33.33,0,0,1,0,.14c-1,4.75-17.5,11.25-17.5,11.25s-10.5,1.75-16.5,3.25a4.2,4.2,0,0,1-1.41.13c-4.63-.35-4.84-9.26-4.84-10.63s5.75-7.75,7.5-8.75a52.82,52.82,0,0,0,5.56-5.33A51.74,51.74,0,0,1,637,732.9h0S646.75,750.08,646,755Z" transform="translate(0 -0.01)"/><path class="cls-11" d="M646,755a.33.33,0,0,1,0,.14c-1,4.75-17.5,11.25-17.5,11.25s-10.5,1.75-16.5,3.25a4.2,4.2,0,0,1-1.41.13c-4.63-.35-4.84-9.26-4.84-10.63s5.75-7.75,7.5-8.75a52.41,52.41,0,0,0,5.64-5.41,50.53,50.53,0,0,1,17.86-12l.28-.11S646.75,750.09,646,755Z" transform="translate(0 -0.01)"/><path class="cls-3" d="M646,755a.33.33,0,0,1,0,.14c-1,4.75-17.5,11.25-17.5,11.25s-10.5,1.75-16.5,3.25a4.2,4.2,0,0,1-1.41.13C616,766.05,629.17,757.1,631,756.9S641.5,754.18,646,755Z" transform="translate(0 -0.01)"/><path class="cls-3" d="M715.41,362.29c-6.18,5.09-11.86,4.36-20.49,4.36-6.24,0-14.35,2.19-19.46-.62-.21-7.81-1-14.38-1-14.38s43.5-8.25,40.75,2A18.17,18.17,0,0,0,715.41,362.29Z" transform="translate(0 -0.01)"/><path class="cls-9" d="M728.43,333.69a35.76,35.76,0,0,1-35.75,35.75h0a24.91,24.91,0,0,1-2.74-.1h0a35.75,35.75,0,1,1,38.5-35.65Z" transform="translate(0 -0.01)"/><path class="cls-3" d="M662.18,424.4l9.5,15L658.43,468l-15.75,11.5-2.75-17.82s-5.32-11.75-7.61-13.74c.66-1.61,1.11-2.35,1.11-1.76,0,2.5,6.15,13.75,6.15,13.75,19-6.5,13.1-31.75,13.1-31.75s-2.36-22.5-3.28-28.42l3.28,1.42Z" transform="translate(0 -0.01)"/><path class="cls-3" d="M746.18,388.9v14l-14.5,4.73L707,425.81l-6.55,4.82-29.25-11.75-18.5-19.5s.9-.49,2.46-1.3l1-.53c12.87,5.85,26.8,8,36.75,8.77a110.87,110.87,0,0,0,13.76.31c37.67-6,38.79-15.1,37.85-18.33Z" transform="translate(0 -0.01)"/><path class="cls-7" d="M756.93,615.63a281.64,281.64,0,0,1-29,12.25c-17.25,6.25-55.25-2-60-3.25s-41.25-15.75-55.25-21.25-17.5-1-20.75-1.5-5.5-6.75-6-8.5,9-17,14.25-24.75,21-6.25,23.25-6.75,18,0,18,0-1-5,4.75-19-9.5-40-9.5-40c-10.5-6.75-8.75-27.75-8.75-27.75-2.5-9.25,5.5-30.5,5.5-28s6.15,13.75,6.15,13.75c19-6.5,13.1-31.75,13.1-31.75s-2.75-26.25-3.48-29.5,3.48-2.75,3.48-2.75q1.22.63,2.46,1.2c13.16,6.2,27.56,8.46,37.78,9.24a110.87,110.87,0,0,0,13.76.31c45.67-7.37,37.58-19.12,37.28-19.54l2.22.79c16.5,12,11.5,51.75,11.5,51.75L751.5,470.3l-4.59,22.1s16.25,98.5,17.75,103.5S756.93,615.63,756.93,615.63Z" transform="translate(0 -0.01)"/><path class="cls-3" d="M635.18,570.63c-1,.75-12.25,24-4,30.5S635.18,570.63,635.18,570.63Z" transform="translate(0 -0.01)"/><path class="cls-3" d="M643.18,573.9c.25.75,23.5,37.75,36.25,40.75Z" transform="translate(0 -0.01)"/><path class="cls-3" d="M699.19,281.11l-3.72.79a24.58,24.58,0,0,1,3.14-.93Z" transform="translate(0 -0.01)"/><path class="cls-3" d="M755.21,440.63l-7,29.65a36.39,36.39,0,0,1-9.72-6.51c-2.23-2.12-4.23-4.55-7.1-5.94-3.69-1.79-8.14-1.55-12.33-1.7a59.41,59.41,0,0,1-15.42-2.64,10.79,10.79,0,0,1-4-1.94c-2.38-2.1-2.22-5.49-2-8.45a127.9,127.9,0,0,0,.15-17.29c-.06-1.08-.14-2.16-.23-3.24-.4-4.83-1.7-10.43-6.64-12.5-2.54-1-5.57-.92-8-2.13a6.42,6.42,0,0,1-1-.62c-3.6-2.52-3.93-7.57-3.79-11.82q.32-8.76.61-17.53a51,51,0,0,0-.19-8.65h0A19.26,19.26,0,0,0,677,363.8c-2.17-4.64-6.69-8.51-7.5-13.41q-.06-.34-.09-.69c-.42-4.38,2.34-8.46,3.31-12.77,1.94-8.67-4.58-18.17-14.17-20.66-3-.78-6.22-.93-9.21-1.82a13.87,13.87,0,0,1-1.41-.5c7.24-9.66,19.65-16,33.74-16,22.33,0,40.44,16,40.44,35.75,0,11.2-5.83,21.19-14.94,27.75.06.28.13.57.21.85,2.35,9.09,9.64,18.61,9.64,18.61l22.64,7.2,2.52.8C760.87,400.9,755.21,440.63,755.21,440.63Z" transform="translate(0 -0.01)"/><path class="cls-3" d="M767.5,469.35a3.4,3.4,0,0,1-.64-.09A1.39,1.39,0,0,1,767.5,469.35Z" transform="translate(0 -0.01)"/><path class="cls-4" d="M690.18,280.12a86.35,86.35,0,0,0-19.08-2.23c-2.09,0-4.33.11-6,1.26-2.21,1.55-2.49,4.35-3.15,6.77a18.76,18.76,0,0,1-7.15,10c-2.37,1.73-5.16,3-7.43,4.82s-4,4.52-3.43,7.18,3.56,4.71,6.56,5.56,6.19,1,9.21,1.82c9.59,2.49,16.1,12,14.16,20.65-1,4.31-3.73,8.39-3.31,12.77.49,5.23,5.32,9.26,7.59,14.11,2.07,4.42,1.93,9.38,1.77,14.16l-.61,17.54c-.16,4.62.24,10.18,4.8,12.44,2.44,1.2,5.48,1.07,8,2.13,4.94,2.06,6.24,7.67,6.64,12.49a129.1,129.1,0,0,1,.08,20.53c-.23,3-.39,6.35,2,8.45a10.71,10.71,0,0,0,4,1.94,59.41,59.41,0,0,0,15.42,2.64c4.2.16,8.64-.08,12.33,1.7,2.87,1.39,4.87,3.83,7.1,5.94a39.21,39.21,0,0,0,23.18,10.15c1.85.16,3.95.12,5.24-1.07s.53-3.76-1.31-3.61a8.9,8.9,0,0,0,8.42-3.22,7.11,7.11,0,0,0,0-8.17c-2.09-3-6.53-5-6.77-8.56-.13-2,1.2-3.81,2.24-5.59a23.51,23.51,0,0,0-3.64-28c-4.69-4.85-11.72-8.53-13.36-14.75-1.09-4.16.56-8.53-.07-12.76-1-7-7.93-12-11.74-18.24s-4.48-13.79-3.51-20.89,3.43-14,5.43-20.9c1.49-5.15,2.72-10.62,1.06-15.73-1.19-3.63-3.75-6.78-6.41-9.75-6.37-7.11-13.7-13.77-22.76-18S695.58,277.83,686,281" transform="translate(0 -0.01)"/><path class="cls-3" d="M690.18,280.12a86.35,86.35,0,0,0-19.08-2.23c-2.09,0-4.33.11-6,1.26-2.21,1.55-2.49,4.35-3.15,6.77a18.76,18.76,0,0,1-7.15,10c-2.37,1.73-5.16,3-7.43,4.82s-4,4.52-3.43,7.18,3.56,4.71,6.56,5.56,6.19,1,9.21,1.82c9.59,2.49,16.1,12,14.16,20.65-1,4.31-3.73,8.39-3.31,12.77.49,5.23,5.32,9.26,7.59,14.11,2.07,4.42,1.93,9.38,1.77,14.16l-.61,17.54c-.16,4.62.24,10.18,4.8,12.44,2.44,1.2,5.48,1.07,8,2.13,4.94,2.06,6.24,7.67,6.64,12.49a129.1,129.1,0,0,1,.08,20.53c-.23,3-.39,6.35,2,8.45a10.71,10.71,0,0,0,4,1.94,59.41,59.41,0,0,0,15.42,2.64c4.2.16,8.64-.08,12.33,1.7,2.87,1.39,4.87,3.83,7.1,5.94a39.21,39.21,0,0,0,23.18,10.15c1.85.16,3.95.12,5.24-1.07s.53-3.76-1.31-3.61a8.9,8.9,0,0,0,8.42-3.22,7.11,7.11,0,0,0,0-8.17c-2.09-3-6.53-5-6.77-8.56-.13-2,1.2-3.81,2.24-5.59a23.51,23.51,0,0,0-3.64-28c-4.69-4.85-11.72-8.53-13.36-14.75-1.09-4.16.56-8.53-.07-12.76-1-7-7.93-12-11.74-18.24s-4.48-13.79-3.51-20.89,3.43-14,5.43-20.9c1.49-5.15,2.72-10.62,1.06-15.73-1.19-3.63-3.75-6.78-6.41-9.75-6.37-7.11-13.7-13.77-22.76-18S695.58,277.83,686,281" transform="translate(0 -0.01)"/><path class="cls-3" d="M636.68,502.9s8.5,3.25,17.5-5.75S636.68,502.9,636.68,502.9Z" transform="translate(0 -0.01)"/><g class="cls-12"><path d="M693.94,280a35,35,0,0,1,5-.63,38.07,38.07,0,0,0-7,.22Z" transform="translate(0 -0.01)"/><path d="M744.08,462.79c-2.24-2.11-4.23-4.55-7.11-5.94-3.68-1.78-8.13-1.54-12.33-1.7a59,59,0,0,1-15.42-2.64,10.71,10.71,0,0,1-4-1.94c-2.38-2.1-2.21-5.48-2-8.45a129.1,129.1,0,0,0-.08-20.53c-.41-4.82-1.7-10.43-6.65-12.49-2.53-1.06-5.56-.93-8-2.13-4.56-2.26-5-7.82-4.81-12.44q.32-8.77.61-17.53c.17-4.79.3-9.75-1.77-14.17-2.27-4.85-7.1-8.87-7.59-14.11-.41-4.37,2.35-8.46,3.32-12.77,1.94-8.67-4.58-18.16-14.17-20.65-3-.78-6.22-.94-9.21-1.82s-5.89-2.78-6.51-5.5,1.15-5.36,3.42-7.19,5.06-3.09,7.44-4.82a18.71,18.71,0,0,0,7.14-10c.67-2.42,1-5.21,3.15-6.77a8,8,0,0,1,4.1-1.2c-.89,0-1.78-.05-2.66-.05-2.09,0-4.33.11-6,1.25-2.21,1.56-2.49,4.35-3.15,6.77a18.76,18.76,0,0,1-7.15,10c-2.37,1.73-5.16,3-7.43,4.82s-4,4.52-3.43,7.19,3.53,4.61,6.52,5.5,6.19,1,9.21,1.82c9.59,2.49,16.1,12,14.16,20.65-1,4.31-3.73,8.4-3.31,12.77.49,5.24,5.32,9.26,7.59,14.11,2.07,4.42,1.94,9.38,1.77,14.17q-.32,8.76-.61,17.53c-.16,4.62.24,10.18,4.8,12.44,2.44,1.2,5.48,1.07,8,2.13,4.94,2.06,6.24,7.67,6.64,12.49a129.1,129.1,0,0,1,.08,20.53c-.23,3-.39,6.35,2,8.45a10.71,10.71,0,0,0,4,1.94,59,59,0,0,0,15.42,2.64c4.2.16,8.64-.08,12.33,1.7,2.87,1.39,4.87,3.83,7.11,5.94a39.21,39.21,0,0,0,23.17,10.15,10.75,10.75,0,0,0,3.35-.13A39.13,39.13,0,0,1,744.08,462.79Z" transform="translate(0 -0.01)"/></g><path class="cls-3" d="M588.93,432.63s-8,7.34-6.83,10.34S588.93,432.63,588.93,432.63Z" transform="translate(0 -0.01)"/><path class="cls-4" d="M596.35,527c-5.77-1.41-21.68-2.71-29.25,22.68a112.32,112.32,0,0,1-6.71,17.17c-7.26,14.91-16.64,45.57,24.61,52.32l99,22.5s53,6.5,56.5,4,3-8,3-8-58.5,0-70-18-12-42.5-12-42.5,1.44-37.83-59-48.82C600.5,528,598.4,527.48,596.35,527Z" transform="translate(0 -0.01)"/><path class="cls-3" d="M596.35,527.15c-5.77-1.41-21.68-2.71-29.25,22.69A112.32,112.32,0,0,1,560.39,567c-7.26,14.9-16.64,45.56,24.61,52.31l99,22.5s53,6.5,56.5,4,3-8,3-8-58.5,0-70-18-12-42.5-12-42.5,1.44-37.83-59-48.82C600.5,528.12,598.4,527.63,596.35,527.15Z" transform="translate(0 -0.01)"/><path class="cls-4" d="M803.88,501.11a15.29,15.29,0,0,0-15.45-12.92c-14.24.26-58.07,2.16-78.43,15.46,0,0-15.5,10-20,10s-65.5,52,25,98.5c0,0,48.5,13.8,67.5-18.6,0,0,13.5-34.8,12.5-46.85s9-44.55,9-44.55S804,501.76,803.88,501.11Z" transform="translate(0 -0.01)"/><path class="cls-3" d="M803.88,509.87c-1.14-7-7.8-12.06-15.45-11.93-14.24.24-58.07,2-78.43,14.27,0,0-15.5,9.23-20,9.23s-65.5,48,25,90.93c0,0,48.5,12.74,67.5-17.17,0,0,13.5-32.13,12.5-43.25s9-41.12,9-41.12S804,510.47,803.88,509.87Z" transform="translate(0 -0.01)"/><rect class="cls-2" x="739.5" y="612.13" width="16" height="34.07"/><ellipse class="cls-3" cx="170.24" cy="470.7" rx="45.04" ry="2.89"/><path class="cls-7" d="M208,359.25a17,17,0,0,0-2.28,4.29c-.14.38-.28.8-.42,1.21a3.69,3.69,0,0,0-.79-.27,11.3,11.3,0,0,0-3.57-.31c0-.46.06-1,.07-1.46.15-5.27-.47-12.62-5.5-9.51-4.82,3-1.38,8,1.73,11.21l.8.78c-2.84,2-3.38,6.73-3.85,11.64s-4.64,10.29-7.41,13.34c-.28.31-.53.59-.78.85a10.1,10.1,0,0,0-8-2.07c-.11-.43-.24-.88-.37-1.36-2.24-8.08-6.89-22.09-12.82-25.16l.78-1c2.52-3.3,5.36-8.19,1.17-9.45s-4.57,4.25-4.34,8.37c0,.52.08,1,.12,1.46a6.17,6.17,0,0,0-4.38,2.14l-.65-.76c-3.4-4-9.63-10.37-11.52-5.56-1.76,4.48,3.73,10.29,7.59,13.66l.24.21c-2.59,10.53,8.69,19.13,14.81,22.85l.79.48c-8.4,9.9-13.59,28.45-13.59,28.45l23.52,4.2s15.6-13.45,13.6-26.09h.16c15.59-3.12,19.13-19.74,16.7-29.61l.28-.11a17.69,17.69,0,0,0,7.22-5.46C221.66,360.14,212.5,353.3,208,359.25Z" transform="translate(0 -0.01)"/><path class="cls-3" d="M207.86,359.29a17.17,17.17,0,0,0-2.28,4.29c-.14.38-.28.8-.42,1.21a3.88,3.88,0,0,0-.79-.27,11.63,11.63,0,0,0-3.57-.31c0-.46.06-1,.07-1.46.15-5.27-.47-12.62-5.5-9.51-4.82,3-1.38,8,1.73,11.21l.8.78c-2.84,2-3.38,6.73-3.85,11.64s-4.64,10.29-7.41,13.34c-.28.31-.53.59-.78.85a10.15,10.15,0,0,0-8.05-2.07c-.11-.43-.24-.88-.37-1.36-2.24-8.08-6.89-22.09-12.82-25.16l.78-1c2.52-3.3,5.36-8.19,1.17-9.45s-4.57,4.25-4.34,8.37c0,.52.08,1,.12,1.46A6.16,6.16,0,0,0,158,364l-.65-.76c-3.4-4-9.63-10.37-11.52-5.56-1.76,4.48,3.73,10.29,7.59,13.66l.24.21c-2.59,10.53,8.69,19.13,14.81,22.85l.79.48c-8.4,9.9-13.59,28.45-13.59,28.45l23.52,4.2s15.6-13.45,13.6-26.09h.16c15.59-3.12,19.13-19.74,16.7-29.61l.28-.11a17.74,17.74,0,0,0,7.22-5.46C221.48,360.18,212.32,353.34,207.86,359.29Z" transform="translate(0 -0.01)"/><path class="cls-7" d="M161.22,366l-2.72,8.05S157,373,155,371.3c-3.86-3.37-9.35-9.18-7.59-13.66,1.89-4.81,8.12,1.54,11.52,5.56C160.31,364.79,161.22,366,161.22,366Z" transform="translate(0 -0.01)"/><path class="cls-7" d="M167,361.44a38.4,38.4,0,0,1-2.68,3.15c-.23-1.4-.4-2.81-.49-4.23-.23-4.12.21-9.59,4.34-8.37S169.5,358.14,167,361.44Z" transform="translate(0 -0.01)"/><path class="cls-7" d="M202.5,362.71c-.08,2.65-.34,4.76-.34,4.76a33.17,33.17,0,0,1-3.43-3.06c-3.11-3.23-6.55-8.21-1.73-11.21C202,350.09,202.64,357.44,202.5,362.71Z" transform="translate(0 -0.01)"/><path class="cls-7" d="M218.74,366.18a17.8,17.8,0,0,1-7.24,5.45,21.16,21.16,0,0,1-2.42.87L205.84,368a32.6,32.6,0,0,1,1.34-4.42,17,17,0,0,1,2.28-4.29C214,353.3,223.1,360.14,218.74,366.18Z" transform="translate(0 -0.01)"/><path class="cls-3" d="M158.94,363.2c1.37,1.59,2.28,2.83,2.28,2.83l-2.72,8.05S157,373,155,371.3a15.76,15.76,0,0,1,3.1-7.07A9.38,9.38,0,0,1,158.94,363.2Z" transform="translate(0 -0.01)"/><path class="cls-3" d="M167,361.44a38.4,38.4,0,0,1-2.68,3.15c-.23-1.4-.4-2.81-.49-4.23A5.5,5.5,0,0,1,167,361.44Z" transform="translate(0 -0.01)"/><path class="cls-7" d="M180.5,393.4l-6.84,3s-1.49-.72-3.64-2.06c-7.19-4.43-21.64-15.56-12-28.68s17.77,10.42,21,21.92C180,391,180.5,393.4,180.5,393.4Z" transform="translate(0 -0.01)"/><path class="cls-3" d="M198.72,364.41a5.55,5.55,0,0,1,3.77-1.7c-.08,2.65-.34,4.76-.34,4.76A33.17,33.17,0,0,1,198.72,364.41Z" transform="translate(0 -0.01)"/><path class="cls-3" d="M211.5,371.63a21.16,21.16,0,0,1-2.42.87L205.84,368a32.6,32.6,0,0,1,1.34-4.42C209.29,364.77,210.83,367.8,211.5,371.63Z" transform="translate(0 -0.01)"/><path class="cls-7" d="M194.5,401.36l-1.15.2c-22.93,3.49-7.56-8.88-7.56-8.88s1-.95,2.43-2.51c2.77-3.05,6.93-8.4,7.41-13.34.72-7.43,1.55-14.4,10.32-12.35S216.25,397,194.5,401.36Z" transform="translate(0 -0.01)"/><rect class="cls-4" x="150.3" y="458.43" width="43.81" height="11.52"/><rect class="cls-4" x="143.34" y="420.99" width="57.24" height="40.2"/><rect class="cls-3" x="149.88" y="458.43" width="43.81" height="11.52"/><rect class="cls-3" x="143.16" y="421" width="57.24" height="40.2"/><rect class="cls-4" x="153.18" y="458.43" width="43.81" height="11.52"/><path class="cls-3" d="M179.06,387.63c1,3.44,1.48,5.81,1.48,5.81l-6.84,3s-1.49-.72-3.64-2.06C172.74,391,175.76,388.38,179.06,387.63Z" transform="translate(0 -0.01)"/><path class="cls-3" d="M194.5,401.36l-1.15.2c-22.93,3.49-7.56-8.88-7.56-8.88s1-.95,2.43-2.51C192.5,393.63,194.31,397.46,194.5,401.36Z" transform="translate(0 -0.01)"/><path class="cls-7" d="M157.26,423.28s12.84-46,30.85-31.8-7.33,36-7.33,36Z" transform="translate(0 -0.01)"/><circle class="cls-3" cx="163.74" cy="372.86" r="1.44"/><circle class="cls-3" cx="163.62" cy="379.59" r="1.44"/><circle class="cls-3" cx="205.39" cy="374.18" r="1.44"/><circle class="cls-3" cx="171.78" cy="408.63" r="1.44"/><circle class="cls-3" cx="202.39" cy="385.35" r="1.44"/><circle class="cls-3" cx="187.51" cy="400.23" r="1.44"/><circle class="cls-3" cx="168.66" cy="375.74" r="1.44"/><circle class="cls-3" cx="201.43" cy="378.51" r="1.44"/><circle class="cls-3" cx="196.51" cy="389.67" r="1.44"/><circle class="cls-3" cx="181.38" cy="407.55" r="1.44"/><circle class="cls-3" cx="178.26" cy="400.47" r="1.44"/><circle class="cls-3" cx="170.82" cy="384.51" r="1.44"/><rect class="cls-3" x="153.18" y="458.43" width="43.81" height="4.21"/><rect class="cls-4" x="146.22" y="420.99" width="57.24" height="40.2"/><circle class="cls-3" cx="183.3" cy="414.03" r="1.44"/><circle class="cls-3" cx="174.66" cy="415.83" r="1.44"/><path class="cls-7" d="M311.89,574.63S319,584,308.6,598s-19,26-15.56,34.76c0,0,15.74-26.16,28.55-26.52S326,590.37,311.89,574.63Z" transform="translate(0 -0.01)"/><path class="cls-3" d="M311.89,574.63a11.74,11.74,0,0,1,1.46,2.92c12.49,14.68,19.15,28.38,7.14,28.73-11.19.35-24.61,20.35-27.83,25.35.11.39.24.78.38,1.15,0,0,15.74-26.16,28.55-26.52S326,590.37,311.89,574.63Z" transform="translate(0 -0.01)"/><path class="cls-13" d="M325.15,586.53c0,3.28-.37,5.94-.82,5.94s-.82-2.66-.82-5.94.46-1.74.91-1.74S325.15,583.24,325.15,586.53Z" transform="translate(0 -0.01)"/><path class="cls-13" d="M329.7,590.45c-2.88,1.57-5.39,2.52-5.61,2.12s1.94-2,4.83-3.57,1.74-.43,2,0S332.59,588.88,329.7,590.45Z" transform="translate(0 -0.01)"/><path class="cls-7" d="M274.2,574.63S267.07,584,277.49,598s19,26,15.55,34.76c0,0-15.73-26.16-28.54-26.52S260.11,590.37,274.2,574.63Z" transform="translate(0 -0.01)"/><path class="cls-3" d="M274.2,574.63a11.74,11.74,0,0,0-1.46,2.92c-12.49,14.68-19.15,28.38-7.14,28.73,11.19.35,24.61,20.35,27.83,25.35a12,12,0,0,1-.39,1.15s-15.73-26.15-28.54-26.49S260.11,590.37,274.2,574.63Z" transform="translate(0 -0.01)"/><path class="cls-13" d="M260.94,586.53c0,3.28.37,5.94.82,5.94s.82-2.66.82-5.94-.46-1.74-.91-1.74S260.94,583.24,260.94,586.53Z" transform="translate(0 -0.01)"/><path class="cls-13" d="M256.39,590.45c2.88,1.57,5.39,2.52,5.61,2.12s-1.94-2-4.83-3.57-1.74-.43-2,0S253.5,588.88,256.39,590.45Z" transform="translate(0 -0.01)"/><ellipse class="cls-1" cx="293.04" cy="692.73" rx="74.6" ry="11.45"/><path class="cls-14" d="M331.44,620.24l-.36,2.91-.5,4.12-.2,1.71-.51,4.12-.21,1.72-.5,4.11-5.66,46.8c-.51,4.18-7.34,7.43-15.57,7.43H278.21c-8.24,0-15-3.25-15.56-7.43l-5.72-46.8-.5-4.11-.21-1.72-.51-4.12-.2-1.71-.5-4.12-.36-2.91c-.29-2.36,3.4-4.36,8.07-4.36h60.66C328,615.88,331.73,617.88,331.44,620.24Z" transform="translate(0 -0.01)"/><polygon class="cls-15" points="331.08 623.14 330.58 627.25 255.51 627.25 255.01 623.14 331.08 623.14"/><polygon class="cls-15" points="330.38 628.97 329.88 633.09 256.22 633.09 255.71 628.97 330.38 628.97"/><polygon class="cls-15" points="329.66 634.8 329.16 638.92 256.93 638.92 256.43 634.8 329.66 634.8"/></svg>